<?xml version="1.0" encoding="UTF-8" standalone="no"?>
<svg
   width="48"
   height="48"
   viewBox="0 0 256 256"
   fill="none"
   version="1.1"
   id="svg6"
   xmlns="http://www.w3.org/2000/svg"
   xmlns:svg="http://www.w3.org/2000/svg">
  <defs
     id="defs6">
    <linearGradient
       id="b"
       gradientTransform="matrix(2862.6331,0,0,-4704.33,12129.061,158074.48)"
       gradientUnits="userSpaceOnUse"
       x1="-4.2020001"
       x2="-4.191"
       y1="33.569"
       y2="33.566002">
      <stop
         offset="0"
         stop-color="#900"
         id="stop3" />
      <stop
         offset="1"
         stop-color="#e80000"
         id="stop4" />
    </linearGradient>
    <linearGradient
       id="a"
       gradientTransform="matrix(4297.615,0,0,-7749.2353,10471.069,255743.34)"
       gradientUnits="userSpaceOnUse"
       x1="-2.4130001"
       x2="-2.401"
       y1="32.987"
       y2="32.984001">
      <stop
         offset="0"
         stop-color="#919191"
         id="stop1" />
      <stop
         offset="1"
         stop-color="#fff"
         id="stop2" />
    </linearGradient>
  </defs>
  <g
     id="g5"
     style="fill:#303030;fill-opacity:1">
    <svg
       width="256"
       height="256"
       viewBox="0 0 256 256"
       fill="none"
       version="1.1"
       id="svg5"
       style="fill:#303030;fill-opacity:1">
      <g
         clip-path="url(#clip0_33_867)"
         id="g4"
         style="fill:#303030;fill-opacity:1">
        <path
           d="M 196,0 H 60 C 26.8629,0 0,26.8629 0,60 v 136 c 0,33.137 26.8629,60 60,60 h 136 c 33.137,0 60,-26.863 60,-60 V 60 C 256,26.8629 229.137,0 196,0 Z"
           fill="#242938"
           id="path1"
           style="fill:#303030;fill-opacity:1" />
        <g
           clip-path="url(#clip1_33_867)"
           id="g3"
           style="fill:#303030;fill-opacity:1" />
      </g>
      <defs
         id="defs5">
        <clipPath
           id="clip0_33_867">
          <rect
             width="256"
             height="256"
             fill="#ffffff"
             id="rect4"
             x="0"
             y="0" />
        </clipPath>
        <clipPath
           id="clip1_33_867">
          <rect
             width="175"
             height="175"
             fill="#ffffff"
             transform="translate(40,40)"
             id="rect5"
             x="0"
             y="0" />
        </clipPath>
      </defs>
    </svg>
  </g>
  <path
     d="m 138.99811,26.973536 a 2.4972995,2.4972995 0 0 0 0,1.23333 34.357019,34.357019 0 0 1 -0.20683,12.624385 L 75.539128,205.36193 a 23.573562,23.573562 0 0 0 44.032142,16.85293 L 182.82342,57.661209 a 43.365682,43.365682 0 0 1 8.31157,-9.437645 6.610949,6.610949 0 0 0 0.81967,-0.926913 v -0.09958 c 0,-0.09958 0.0995,-0.09958 0.0995,-0.206832 1.63933,-4.205574 -8.93207,-12.210721 -23.5022,-17.856456 -14.57014,-5.645737 -27.80735,-6.779479 -29.43136,-2.466658 a 0.45196523,0.45196523 0 0 0 -0.1225,0.306415 z"
     opacity="0.5"
     id="path4"
     style="stroke-width:7.66042" />
  <path
     d="m 137.15196,25.541036 a 2.4972995,2.4972995 0 0 0 0,1.233328 34.334037,34.334037 0 0 1 -0.20684,12.624387 L 73.715947,203.92176 A 23.573564,23.573564 0 0 0 117.7481,220.77469 L 180.97726,56.228709 a 43.396323,43.396323 0 0 1 8.31157,-9.445307 6.6262699,6.6262699 0 0 0 0.81966,-0.92691 v -0.09958 c 0,-0.09958 0.0995,-0.09958 0.0995,-0.206832 1.64697,-4.205574 -8.95505,-12.218382 -23.50986,-17.856457 -14.55482,-5.63808 -27.81503,-6.771824 -29.45435,-2.466663 a 0.37536095,0.37536095 0 0 1 -0.0995,0.306419 z"
     fill="url(#a)"
     id="path5"
     style="fill:url(#a);stroke-width:7.66042" />
  <path
     d="M 157.0614,99.977417 111.38994,218.59914 a 16.983168,16.983168 0 0 1 -21.862872,9.5449 17.37385,17.37385 0 0 1 -10.157728,-21.86287 l 29.14793,-75.83824 a 33.368823,33.368823 0 0 1 10.77822,-10.05814 c 7.18549,-4.20557 13.02273,-3.28632 20.93596,-6.77182 a 61.95754,61.95754 0 0 0 16.85293,-13.650883 z"
     fill="url(#b)"
     id="path6"
     style="fill:url(#b);stroke-width:7.66042" />
  <path
     d="m 179.2077,42.118202 c 0.9116,-2.374733 -5.63806,-7.108877 -14.62375,-10.579051 -8.98569,-3.470173 -17.0368,-4.335802 -17.91774,-1.984051 -0.88095,2.351752 5.63807,7.108878 14.62375,10.579051 8.98568,3.470174 17.01382,4.358783 17.91774,1.984051 z"
     fill="#333333"
     id="path7"
     style="stroke-width:7.66042" />
  <g
     fill="#ffffff"
     id="g13"
     transform="matrix(7.6604277,0,0,7.6604277,9.65945,7.2862374)">
    <path
       d="M 16.587,2.542 A 4.487,4.487 0 0 1 16.56,4.185 L 8.361,25.6 a 3.059,3.059 0 0 0 1.77,3.928 2.555,2.555 0 0 0 0.825,0.187 A 3.092,3.092 0 0 1 9.932,26.19 L 17.972,5.2 A 5.141,5.141 0 0 1 16.588,2.541 Z"
       opacity="0.3"
       id="path8" />
    <g
       opacity="0.5"
       id="g12">
      <circle
         cx="13.952"
         cy="16.357"
         r="0.23999999"
         id="circle8" />
      <circle
         cx="15.509"
         cy="18.08"
         r="0.359"
         id="circle9" />
      <circle
         cx="13.126"
         cy="20.138"
         r="0.67900002"
         id="circle10" />
      <circle
         cx="12.035"
         cy="21.393999"
         r="0.359"
         id="circle11" />
      <circle
         cx="13.459"
         cy="24.066"
         r="0.23999999"
         id="circle12" />
    </g>
  </g>
</svg>
