<?xml version="1.0" encoding="UTF-8" standalone="no"?>
<svg
   width="48"
   height="48"
   viewBox="0 0 256 256"
   fill="none"
   version="1.1"
   id="svg6"
   xmlns="http://www.w3.org/2000/svg"
   xmlns:svg="http://www.w3.org/2000/svg">
  <defs
     id="defs6" />
  <g
     id="g5">
    <svg
       width="256"
       height="256"
       viewBox="0 0 256 256"
       fill="none"
       version="1.1"
       id="svg5">
      <g
         clip-path="url(#clip0_33_867)"
         id="g4">
        <path
           d="M 196,0 H 60 C 26.8629,0 0,26.8629 0,60 v 136 c 0,33.137 26.8629,60 60,60 h 136 c 33.137,0 60,-26.863 60,-60 V 60 C 256,26.8629 229.137,0 196,0 Z"
           fill="#242938"
           id="path1"
           style="fill:#cd6799;fill-opacity:1" />
        <g
           clip-path="url(#clip1_33_867)"
           id="g3" />
      </g>
      <defs
         id="defs5">
        <clipPath
           id="clip0_33_867">
          <rect
             width="256"
             height="256"
             fill="#ffffff"
             id="rect4"
             x="0"
             y="0" />
        </clipPath>
        <clipPath
           id="clip1_33_867">
          <rect
             width="175"
             height="175"
             fill="#ffffff"
             transform="translate(40,40)"
             id="rect5"
             x="0"
             y="0" />
        </clipPath>
      </defs>
    </svg>
  </g>
  <path
     d="m 131.3028,149.72149 c -3.53546,1.60037 -7.40906,3.6859 -15.16357,7.87869 -2.94011,1.62932 -6.01252,3.25865 -8.87177,4.79382 -0.19846,-0.19551 -0.40426,-0.44172 -0.60272,-0.64447 -15.339987,-16.14842 -43.71197,-27.55368 -42.506537,-49.24178 0.448375,-7.9004 3.204721,-28.63988 54.487457,-53.8256 42.20518,-20.493268 75.7885,-14.81598 81.58785,-2.223121 8.3352,17.951523 -18.00077,51.356261 -61.5878,56.200791 a 32.848299,32.361985 0 0 1 -27.57081,-6.86488 c -2.30799,-2.46932 -2.65344,-2.61416 -3.50608,-2.12174 -1.4039,0.72414 -0.49982,2.96175 0,4.24348 a 25.7259,25.345032 0 0 0 15.73691,12.19458 83.79293,82.552387 0 0 0 51.12838,-4.98936 c 26.41683,-10.07283 47.04166,-38.075464 40.99975,-61.552205 -6.06397,-23.802604 -46.16697,-31.652323 -84.109,-18.371526 A 191.10669,188.27738 0 0 0 66.716092,71.745704 c -20.904131,19.262223 -24.211746,36.004416 -22.85929,43.014136 4.865861,24.88881 39.691388,41.08791 53.656872,53.08697 -0.735021,0.39828 -1.352443,0.72415 -1.903712,1.03553 -6.968044,3.41071 -33.531877,17.08979 -40.154454,31.55819 -7.519313,16.3946 1.205433,28.14745 6.968043,29.72609 a 42.866699,42.232063 0 0 0 46.166949,-18.42221 46.306619,45.621056 0 0 0 4.10881,-42.00034 36.971792,36.42443 0 0 1 5.26277,-3.45416 c 3.55754,-2.07106 6.94599,-4.11315 9.95227,-5.69177 a 76.993941,75.854057 0 0 1 32.89239,-7.16179 c 23.85893,2.76623 28.57045,17.43014 27.66637,23.60709 a 15.854504,15.619781 0 0 1 -7.57076,10.56525 c -1.65381,1.03553 -2.20508,1.38312 -2.05808,2.12175 0.19845,1.08622 0.99964,1.03552 2.40353,0.84 a 18.632901,18.357044 0 0 0 12.98056,-16.34392 c 0.73502,-14.48288 -13.28191,-30.37059 -38.09639,-30.22576 a 56.986542,56.142864 0 0 0 -21.65385,4.25072 q -1.65381,0.67345 -3.21206,1.44829 z m -35.464985,56.76563 c -7.923572,8.49421 -18.948958,11.70217 -23.711924,8.98663 -5.145189,-2.89658 -3.109159,-15.46047 6.615231,-24.4471 a 126.27741,124.4079 0 0 1 18.596146,-13.67907 c 1.153985,-0.72415 2.859252,-1.68002 4.909972,-2.89658 0.35282,-0.19552 0.55127,-0.29689 0.55127,-0.29689 l 1.20543,-0.72416 a 34.237498,33.730616 0 0 1 -8.166125,33.05717 z"
     fill="#cd6799"
     id="path1-8"
     style="fill:#ffffff;fill-opacity:1;stroke-width:7.29564" />
</svg>
